<svg version="1" xmlns="http://www.w3.org/2000/svg" width="1333.333" height="1333.333" viewBox="0 0 1000.000000 1000.000000"><path d="M357.5 11.4c-15.4 2.8-22.9 4.7-33.3 8.5-26.4 9.9-46.3 23-66.2 43.7-43.7 45.5-59.8 107.5-44 169.4 15.8 62 64.1 110.5 126.2 126.9 30.1 8 61.1 8 91.8.1 31.8-8.2 66.3-29.3 87.1-53.5 21.5-25 36-55.1 42.1-87.3 1.8-9.5 2.2-15.4 2.2-31.7.1-21.5-.7-27.8-5.5-46.3-18.5-70.7-79-122.7-152.4-131.2-14.9-1.7-33.5-1.1-48 1.4zm58.1 22.4c19.9 4.3 37.9 11.3 52.3 20.4 38 23.9 63 60.6 71.8 105.3 2.7 13.8 2.5 42.5-.5 57-10.5 52.4-42.8 93.3-90.1 114.1-19.8 8.7-35.4 12.1-59.1 13.1-42.8 1.7-86.3-16.1-116.8-47.7-20.2-21-35.1-50.7-40.8-81.5-2.6-13.7-2.6-43.2 0-56 10.9-55 49.6-100.3 101-118.4 7.5-2.7 24.2-6.6 36.1-8.5 7.1-1.1 37.2.3 46.1 2.2zM93.4 128.4c-10.6 3.4-16.9 7.3-23.9 14.7-11.2 11.9-16.3 26.2-15.2 42.2 2.2 30.9 28.7 53.9 59.2 51.4 47.5-4.1 68.4-59.2 35.6-94-13.6-14.4-36.9-20.4-55.7-14.3zm29.9 22.4c6.8 3 13 9.3 16.3 16.5 3.8 8.3 4 20.4.5 28.4-2.8 6.2-10.2 13.5-16.8 16.5-6.8 3.1-20.9 3.2-27.4.2-27.3-12.7-26-52 2.1-62.4 6.9-2.6 18.5-2.2 25.3.8z"/><path d="M704.5 157.6c-35.9 5.4-60.8 14.4-86.5 31.2-14.8 9.6-23.9 17.3-37.1 30.9-22.6 23.5-37.6 49.3-47.2 81.3-7.7 25.5-10.6 58.6-7.2 83.5 12.8 95 82.2 164.7 177.1 178.1 14 1.9 40.5 1.4 56.9-1.1 44.9-6.9 83.3-27 115.5-60.1 28.9-29.8 46.4-64.2 54.2-106.4 3.1-16.7 3.1-52.3 0-69C915 243.7 857.4 181.7 778 162.1c-24-5.9-52.6-7.7-73.5-4.5zm46.5 21.9c22.4 3 37.4 7.4 56.7 16.5 32.3 15.3 57.8 38.2 76.1 68.2 33.4 54.6 36.1 123 7.2 179.3-22.3 43.2-64 77.9-109.5 90.9-23.3 6.7-54.7 9.2-75.5 6.2-31.1-4.6-58.8-15.4-83-32.4-12.3-8.6-33.6-29.9-42.2-42.2-25-35.4-37-80.3-32.9-122.5 2.2-22.5 6.8-39.9 16-60.5 20-44.6 61.4-81.1 109.6-96.4 23.6-7.5 54-10.3 77.5-7.1zM293 387.1c-23.6 2.8-42.4 6.8-63.1 13.5C156.8 424 94.7 477.9 60.5 547.4c-9.2 18.7-13.8 30.6-18.9 48.4-18.8 65.5-14.3 135.7 12.9 198.6C102.9 906.6 220.4 976.8 343.6 967c61.7-4.9 119.7-28.6 165.4-67.5 10.5-8.9 29.5-28.4 37.6-38.5 62.7-78.3 81.8-181.6 50.8-275.5-15.4-46.5-45.3-92.9-79.6-123.3-50.4-44.7-109-70-174.2-75.2-15.1-1.2-39.9-1.1-50.6.1zm49.6 21.9c51.7 4.1 101.6 23.3 142.7 54.8 13.8 10.5 26.6 22.4 35.9 33.1 36.5 42.1 57.7 87.2 66 140.6 2.9 18.8 3.1 56.8.5 75-4.9 32.7-13.1 58.6-27.9 87.8-25.7 50.6-68.3 92.8-118.3 117.2-30.1 14.6-57.4 22.8-89.5 26.7-15.6 1.9-50.8 1.6-66-.5-47.3-6.6-89.8-23.9-127-51.8-56.9-42.5-93-103.4-104.1-176-3-19.1-3.2-56.1-.6-74.4 4.6-31.3 12.5-57.3 25.6-84 25.8-52.4 69.4-96.1 121.6-121.5 45.3-22.1 91.4-30.9 141.1-27zM674.4 748.9c-31.3 7.4-53.8 26.6-64.1 54.9-15.3 42 4.1 89.9 44.2 108.7 13.8 6.6 20.5 8 37.5 7.9 11.6-.1 16.1-.5 22.4-2.3 30.1-8.1 53.6-31.6 61.7-61.7 1.8-6.3 2.2-10.7 2.2-21.9 0-16.4-1.8-24.8-8.4-38.5-10.8-22.7-30.2-39.2-54.1-46-10.7-3.1-30.5-3.6-41.4-1.1zm33.8 22c19.3 5 33.7 17.1 42.4 35.6 14.2 30.4 3.2 66.6-25.3 83.4-9.2 5.3-18.8 8.1-30.3 8.8-26.9 1.5-49.7-12.3-61.7-37.2-9.1-19.2-8-42.8 2.9-61.3 13.8-23.4 45.2-36.1 72-29.3z"/></svg>